<svg width="100" height="100" viewBox="0 0 100 100" xmlns="http://www.w3.org/2000/svg">
  <defs>
    <radialGradient id="starGlow" cx="50%" cy="50%" r="50%" fx="50%" fy="50%">
      <stop offset="0%" style="stop-color:white;stop-opacity:0.8"/>
      <stop offset="100%" style="stop-color:white;stop-opacity:0"/>
    </radialGradient>
  </defs>
  <g fill="url(#starGlow)">
    <circle cx="10" cy="10" r="1"/>
    <circle cx="30" cy="15" r="0.8"/>
    <circle cx="50" cy="12" r="1.2"/>
    <circle cx="70" cy="18" r="0.9"/>
    <circle cx="90" cy="10" r="1"/>
    <circle cx="15" cy="30" r="1.1"/>
    <circle cx="35" cy="35" r="0.7"/>
    <circle cx="55" cy="32" r="1"/>
    <circle cx="75" cy="38" r="1.2"/>
    <circle cx="95" cy="30" r="0.8"/>
    <circle cx="20" cy="50" r="0.9"/>
    <circle cx="40" cy="55" r="1.2"/>
    <circle cx="60" cy="52" r="0.8"/>
    <circle cx="80" cy="58" r="1"/>
    <circle cx="100" cy="50" r="1.1"/>
    <circle cx="25" cy="70" r="1"/>
    <circle cx="45" cy="75" r="0.8"/>
    <circle cx="65" cy="72" r="1.2"/>
    <circle cx="85" cy="78" r="0.9"/>
    <circle cx="5" cy="70" r="1"/>
    <circle cx="30" cy="90" r="1.1"/>
    <circle cx="50" cy="95" r="0.7"/>
    <circle cx="70" cy="92" r="1"/>
    <circle cx="90" cy="98" r="1.2"/>
    <circle cx="10" cy="90" r="0.8"/>
  </g>
</svg> 